<?xml version="1.0" encoding="utf-8"?>
<!-- Generator: Adobe Illustrator 16.0.0, SVG Export Plug-In . SVG Version: 6.00 Build 0)  -->
<!DOCTYPE svg PUBLIC "-//W3C//DTD SVG 1.1//EN" "http://www.w3.org/Graphics/SVG/1.1/DTD/svg11.dtd">
<svg version="1.1" id="Capa_1" xmlns="http://www.w3.org/2000/svg" xmlns:xlink="http://www.w3.org/1999/xlink" x="0px" y="0px"
	 width="82.833px" height="35px" viewBox="0 0 82.833 35" enable-background="new 0 0 82.833 35" xml:space="preserve">
<rect x="57.163" y="7.625" fill="#FFFFFF" width="16.26" height="20.375"/>
<g>
	<defs>
		<rect id="SVGID_1_" x="11.5" y="7.625" width="61.924" height="20.375"/>
	</defs>
	<clipPath id="SVGID_2_">
		<use xlink:href="#SVGID_1_"  overflow="visible"/>
	</clipPath>
	<g clip-path="url(#SVGID_2_)">
		<path fill="#FFFFFF" d="M11.5,24.394V11.729h4.157v1.535H13.17v3.826h2.195v1.554H13.17v4.254h2.486v1.496H11.5z"/>
		<path fill="#FFFFFF" d="M20.125,24.394l-0.835-3.166c-0.233-0.874-0.292-1.612-0.292-1.612H18.96c0,0-0.058,0.758-0.311,1.612
			l-0.913,3.166h-1.709l1.981-6.352l-1.942-6.313h1.729l0.875,3.166c0.233,0.855,0.291,1.632,0.291,1.632h0.039
			c0,0,0.078-0.757,0.311-1.632l0.855-3.166h1.709l-1.962,6.274l1.981,6.391H20.125z"/>
		<path fill="#FFFFFF" d="M25.489,19.46h-0.991v4.934h-1.67V11.729h2.661c1.923,0,2.7,1.088,2.7,2.759v2.214
			C28.189,18.372,27.412,19.46,25.489,19.46z M26.519,14.564c0-0.796-0.331-1.301-1.03-1.301h-0.991v4.661h0.991
			c0.699,0,1.03-0.505,1.03-1.301V14.564z"/>
		<path fill="#FFFFFF" d="M29.454,24.394V11.729h4.157v1.535h-2.486v3.826h2.195v1.554h-2.195v4.254h2.486v1.496H29.454z"/>
		<path fill="#FFFFFF" d="M38.43,24.394V20.12c0-0.796-0.331-1.302-1.03-1.302h-0.932v5.575h-1.671V11.729h2.603
			c1.924,0,2.7,1.166,2.7,2.836v1.555c0,0.874-0.446,1.593-1.049,1.903c0.699,0.291,1.049,1.127,1.049,2.098v4.273H38.43z
			 M38.43,14.564c0-0.796-0.331-1.301-1.03-1.301h-0.932v4.156h0.932c0.699,0,1.03-0.505,1.03-1.301V14.564z"/>
		<path fill="#FFFFFF" d="M41.656,24.394V11.729h1.671v12.665H41.656z"/>
		<path fill="#FFFFFF" d="M45.076,24.394V11.729h4.157v1.535h-2.486v3.826h2.194v1.554h-2.194v4.254h2.486v1.496H45.076z"/>
		<path fill="#FFFFFF" d="M54.344,24.394l-2.564-9.518h-0.038c0,0,0.213,1.495,0.213,2.719v6.799H50.42V11.729h1.865l2.563,9.519
			h0.039c0,0-0.194-1.555-0.194-2.72v-6.799h1.534v12.665H54.344z"/>
	</g>
	<g clip-path="url(#SVGID_2_)">
		<path fill="#62AB3A" d="M60.427,24.549c-1.67,0-2.642-0.99-2.642-2.72v-7.536c0-1.729,0.972-2.72,2.642-2.72
			c1.671,0,2.623,0.991,2.623,2.72v1.438h-1.671V14.39c0-0.894-0.33-1.301-0.952-1.301c-0.621,0-0.971,0.407-0.971,1.301v7.343
			c0,0.894,0.35,1.302,0.971,1.302c0.622,0,0.952-0.408,0.952-1.302v-1.34h1.671v1.437C63.05,23.559,62.098,24.549,60.427,24.549z"
			/>
		<path fill="#62AB3A" d="M64.411,24.394V11.729h1.671v12.665H64.411z"/>
	</g>
	<g clip-path="url(#SVGID_2_)">
		<path fill="#62AB3A" d="M67.831,24.394V11.729h4.157v1.535h-2.486v3.826h2.194v1.554h-2.194v4.254h2.486v1.496H67.831z"/>
	</g>
</g>
</svg>
